<svg width="375" height="387" viewBox="0 0 375 387" fill="none" xmlns="http://www.w3.org/2000/svg">
<g opacity="0.3">
<path d="M-130.331 273.769C-133.558 273.053 -136.773 272.291 -140.024 271.669C-146.528 270.423 -150.616 267.19 -150.846 259.171C-151 254.754 -149.675 250.733 -148.223 246.795C-147.271 244.166 -144.503 243.267 -141.78 242.902C-135.938 242.18 -130.13 241.399 -124.404 239.999C-120.696 239.103 -118.058 237.025 -116.21 233.641C-112.932 227.508 -113.48 223.084 -118.314 218.01C-121.028 215.194 -124.251 212.987 -127.5 210.874C-131.3 208.413 -134.568 205.449 -135.752 200.805C-135.905 200.267 -136.129 199.809 -136.047 199.135C-135.295 193.369 -132.537 188.439 -128.659 184.505C-126.412 182.222 -122.745 181.663 -119.392 182.462C-114.627 183.54 -110.274 185.602 -105.779 187.502C-98.3456 190.638 -89.5667 190.603 -85.2934 182.051C-83.0297 177.486 -83.886 172.731 -85.4428 168.186C-86.6901 164.52 -88.4617 160.962 -89.9187 157.339C-92.5321 150.821 -91.4575 147.18 -85.7287 142.996C-83.4464 141.32 -81.109 139.808 -78.4888 138.72C-73.2483 136.544 -69.0079 137.73 -65.9346 142.531C-62.6798 147.581 -58.4457 151.749 -54.2703 155.951C-46.741 163.538 -35.0548 159.309 -32.956 149.627C-32.0468 145.495 -31.8346 141.375 -31.5637 137.22C-31.367 134.637 -30.7881 132.107 -29.7256 129.806C-28.505 127.099 -26.3579 125.188 -23.3376 124.456C-18.2071 123.244 -13.1012 123.419 -7.97897 124.642C-4.34844 125.516 -2.57171 128.13 -2.05168 131.552C-1.4462 135.394 -1.1554 139.301 -0.713464 143.199C-0.401627 145.918 0.0275558 148.569 0.968707 151.159C4.50027 160.907 14.3838 163.406 22.2951 156.624C25.5264 153.81 27.8775 150.213 30.5024 146.889C32.3792 144.507 34.1083 141.937 36.3513 139.853C39.5613 136.933 42.7347 136.739 46.2537 139.323C48.2487 140.753 50.3149 142.102 52.4895 143.232C61.1078 147.68 60.7887 151.274 57.5588 159.26C55.7111 163.937 53.426 168.397 52.3393 173.377C50.1589 183.734 57.9158 191.581 68.3546 189.604C73.6203 188.628 78.2081 185.928 83.0165 183.885C83.6369 183.604 84.2573 183.322 84.8652 183.087C91.2221 180.812 93.5404 181.036 96.9004 187.356C98.4514 190.259 100.271 193.083 101.868 195.998C104.166 199.995 103.648 203.039 99.8832 205.81C94.3428 209.845 89.4301 214.496 84.6189 219.324C79.4184 224.495 78.6393 229.806 82.1838 234.883C85.3656 239.465 90.095 241.23 95.3078 241.93C99.7898 242.584 104.433 242.635 108.779 243.8C112.985 244.927 116.378 247.427 116.892 252.538C117.417 257.602 117.259 262.632 115.352 267.342C114.199 270.166 112.159 272.603 108.65 272.757C101.933 273.046 95.4302 274.387 89.0947 276.767C87.2833 277.426 85.5181 278.096 83.8597 279.293C78.897 282.837 78.6331 286.595 81.1338 290.945C84.6146 297 88.7745 302.74 95.1436 306.336C101.374 309.895 102.849 315.114 99.5249 322.528C98.0253 325.906 96.0634 329.16 93.5414 331.915C90.6516 335.119 88.2249 335.115 84.3469 333.131C77.6845 329.705 70.697 326.938 63.1713 326.363C56.2839 325.811 50.3173 331.622 50.3493 338.344C50.3612 342.922 52.101 346.969 54.0595 351.124C56.3435 355.913 58.9973 360.802 57.6281 366.651C57.1895 368.473 55.9025 369.023 54.8859 370.044C51.8235 373.152 48.1529 375.202 43.9753 376.37C39.2271 377.634 35.3351 376.442 32.5376 372.46C30.238 369.208 27.6203 366.219 24.9901 363.276C22.2337 360.25 19.4773 357.224 15.4501 355.797C11.423 354.37 7.68091 355.207 4.45309 357.823C-1.5795 362.771 -2.8737 369.635 -2.94465 376.926C-2.95639 379.559 -3.01434 382.179 -3.71055 384.777C-4.69271 388.443 -7.06204 390.443 -10.6992 391.259C-14.5924 392.106 -18.5854 392.03 -22.5357 392.165C-27.3802 392.309 -31.0541 388.64 -31.8449 383.455C-32.1459 381.435 -32.1446 379.396 -32.3994 377.388C-33.1637 371.365 -34.4648 365.497 -37.5988 360.181C-40.6562 355.135 -45.4637 353.847 -50.736 356.512C-55.3879 358.896 -58.8217 362.65 -62.2554 366.405C-64.9907 369.402 -67.4645 372.717 -71.1689 374.708C-77.4171 378.057 -81.9865 376.435 -86.8052 373.154C-88.1015 372.26 -89.2645 371.053 -90.3937 369.905C-93.8614 366.39 -94.1659 364.568 -92.1244 360.092C-91.4243 358.589 -90.6567 357.203 -90.659 355.363C-90.6504 354.221 -88.9154 353.294 -88.53 351.855C-87.6225 348.468 -86.3913 345.168 -85.8198 341.741C-84.824 335.99 -85.9845 330.706 -91.2815 327.546C-96.061 324.674 -101.199 324.988 -106.187 327.332C-110.32 329.258 -114.566 331.054 -119.009 332.102C-126.74 333.959 -130.839 330.026 -134.094 323.683C-135.138 321.663 -135.725 319.417 -136.22 317.196C-137.183 313.208 -135.703 310.273 -132.352 307.938C-126.028 303.566 -120.547 298.271 -115.887 292.16C-111.833 286.831 -114.534 279.344 -120.81 277.066C-122.391 276.493 -123.767 275.527 -125.456 275.174C-127.111 274.88 -128.738 274.295 -130.402 273.849L-130.331 273.769ZM-4.92251 213.085C-23.7367 208.043 -42.5509 203.002 -61.3651 197.961C-65.1094 196.958 -65.9893 197.468 -66.9963 201.226C-73.0633 223.868 -79.1427 246.557 -85.2097 269.199C-86.453 273.839 -85.9923 274.709 -81.4159 275.935C-44.3422 285.869 -7.31478 295.79 29.7589 305.724C33.8268 306.814 35.4355 305.803 36.542 301.674C39.2771 291.466 42.0122 281.258 44.7598 271.004C48.0543 258.709 51.3365 246.46 54.6311 234.164C55.6132 230.499 54.8946 229.113 51.5663 228.221C32.7521 223.18 13.9379 218.138 -4.87627 213.097L-4.92251 213.085ZM59.992 217.3C59.5224 216.279 59.3783 215.892 59.1755 215.54C43.1536 187.874 19.1437 172.638 -12.6336 170.489C-29.3222 169.349 -45.0547 173.886 -59.6235 182.216C-60.5033 182.726 -61.8366 183.264 -61.7367 184.186C-61.628 185.259 -60.1045 185.12 -59.1799 185.368C-25.2497 194.46 8.63437 203.539 42.5646 212.631C48.2043 214.142 53.8439 215.653 60.0383 217.313L59.992 217.3ZM42.4105 321.745C40.7234 321.94 39.454 321.5 38.1596 321.153C24.0143 317.363 9.91523 313.585 -4.23009 309.795C-8.66784 308.606 -13.0931 307.371 -17.5433 306.228C-19.9009 305.596 -21.5309 306.502 -22.2574 308.844C-23.2788 312.101 -24.1615 315.395 -24.6744 318.788C-25.5972 325.006 -24.0675 327.803 -18.2535 329.957C-11.3086 332.515 -4.06894 334.156 3.02507 336.156C4.96659 336.677 6.90462 337.395 7.54163 339.455C8.12347 341.352 9.15991 341.182 10.5731 340.715C18.7806 338.19 26.2482 334.174 33.335 329.359C36.4847 327.219 39.5669 324.962 42.3181 321.721L42.4105 321.745ZM-70.0104 292.169C-78.9784 289.766 -87.9001 287.376 -96.868 284.973C-99.2718 284.329 -99.59 284.592 -98.8675 287.073C-97.524 291.859 -95.2792 296.24 -92.8709 300.565C-89.8419 305.902 -86.6831 311.125 -82.3725 315.562C-81.7109 316.236 -81.1026 317.294 -79.8887 316.277C-77.9797 314.7 -75.8249 314.979 -73.6061 315.573C-66.4623 317.388 -59.2723 319.215 -52.0664 320.798C-46.7806 321.966 -43.7891 320.231 -41.4383 315.341C-40.1839 312.693 -39.4842 309.897 -38.9231 307.063C-37.8827 302.071 -38.9 300.505 -43.8925 299.168C-52.583 296.839 -61.2736 294.51 -70.0104 292.169ZM44.9574 318.897L45.7059 319.247C58.9879 305.55 66.9997 289.147 69.8427 270.216C71.5411 258.885 70.0038 240.77 66.9965 236.831L44.9912 318.956L44.9574 318.897ZM-79.7615 199.496C-95.646 207.374 -109.995 260.37 -101.132 277.216C-93.3159 251.562 -86.9245 225.674 -79.7615 199.496ZM-15.4264 344.739C-17.5974 343.411 -19.4414 341.972 -19.7781 339.346C-20.1665 336.357 -21.9945 334.674 -24.7557 333.884C-32.6604 331.766 -40.5189 329.661 -48.4237 327.543C-51.5671 326.7 -54.4149 327.529 -56.5138 330C-57.973 331.747 -59.5568 332.665 -61.8716 332.244C-47.6076 341.138 -32.1555 345.229 -15.414 344.692L-15.4264 344.739Z" fill="#3F75B7"/>
<path d="M29.9928 261.03C25.8324 259.915 24.5945 257.694 25.7347 253.623C26.788 249.877 29.3814 248.334 33.0333 249.313C36.5003 250.242 38.0637 253.098 37.0353 256.751C36.007 260.404 33.4135 261.947 29.9928 261.03ZM32.4863 251.355C30.3136 250.772 28.7761 251.703 28.0958 254.057C27.3658 256.597 28.1857 258.159 30.4508 258.766C32.4848 259.311 34.1521 258.266 34.8076 256.005C35.4505 253.79 34.554 251.958 32.4276 251.389L32.4863 251.355Z" fill="#3F75B7"/>
<path d="M6.00382 248.485C5.0714 251.965 1.96599 253.57 -1.91704 252.53C-4.96799 251.712 -6.64529 248.726 -5.83368 245.513C-4.81423 241.708 -2.09996 239.899 1.36703 240.828C5.1576 241.844 6.97356 244.866 6.05006 248.498L6.00382 248.485ZM-0.719345 250.463C1.12972 250.959 3.27523 249.793 3.88984 247.869C4.47959 246.038 3.10645 243.582 1.23603 242.981C-0.785503 242.389 -2.88477 243.568 -3.45666 245.702C-4.00369 247.743 -2.78712 249.86 -0.753156 250.405L-0.719345 250.463Z" fill="#3F75B7"/>
<path d="M22.9269 286.289C26.5788 287.267 28.1333 289.971 27.1174 293.578C26.1849 297.058 23.4653 298.517 19.8596 297.551C16.3926 296.622 14.8967 293.884 15.8416 290.358C16.8611 286.553 19.1363 285.273 22.8807 286.276L22.9269 286.289ZM22.531 288.321C20.497 287.776 18.8083 288.716 18.2151 290.745C17.581 293.111 18.3548 294.661 20.515 295.29C22.6414 295.86 24.2003 295.034 24.806 292.959C25.4152 290.685 24.5525 288.912 22.4848 288.309L22.531 288.321Z" fill="#3F75B7"/>
<path d="M-5.42867 265.264C-4.43408 261.552 -1.81228 259.719 1.38978 260.527C5.18036 261.543 6.92873 264.448 5.93414 268.16C5.06388 271.408 1.87493 273.139 -1.68451 272.185C-4.78168 271.355 -6.75576 268.738 -5.38243 265.277L-5.42867 265.264ZM3.91609 267.37C4.46312 265.329 3.31063 263.528 1.12555 262.992C-1.13955 262.385 -2.79444 263.384 -3.37876 265.565C-3.97552 267.792 -2.75543 269.71 -0.570349 270.246C1.39603 270.673 3.40286 269.471 3.90366 267.417L3.91609 267.37Z" fill="#3F75B7"/>
<path d="M39.1507 243.492C36.0162 242.802 34.5969 240.333 35.3658 236.909C36.2714 232.974 38.5537 231.298 41.9655 232.063C46.2219 233.004 47.9345 235.303 47.0448 238.994C46.0521 243.253 43.8231 244.545 39.1383 243.539L39.1507 243.492ZM40.3449 241.624C42.3789 242.169 44.4071 241.072 44.9292 239.123C45.5011 236.989 44.377 234.897 42.3555 234.306C40.2753 233.748 38.1298 234.914 37.5952 236.909C37.0481 238.951 38.311 241.079 40.3912 241.637L40.3449 241.624Z" fill="#3F75B7"/>
<path d="M37.1256 276.567C36.1131 279.976 32.8193 281.729 29.2971 280.636C26.3759 279.704 24.3856 276.038 25.2275 273.08C26.2399 269.672 29.4875 267.906 32.9172 268.974C36.3131 269.984 38.0669 273.239 37.0793 276.554L37.1256 276.567ZM32.2832 271.341C29.8794 270.697 28.2031 271.59 27.6277 273.923C27.0683 276.01 28.3435 278.093 30.4237 278.65C32.4115 279.183 34.5605 277.819 35.0737 275.719C35.6332 273.631 34.5358 271.994 32.2707 271.387L32.2832 271.341Z" fill="#3F75B7"/>
<path d="M4.50916 227.994C5.59971 224.109 7.81634 222.863 11.7332 223.963C14.9228 224.817 16.8526 227.97 15.8471 230.983C14.5006 234.899 11.6422 236.321 8.23388 235.358C4.82555 234.395 3.46834 231.694 4.50916 227.994ZM13.5144 230.258C14.0987 228.078 13.2663 226.561 11.1986 225.958C9.1646 225.413 7.0653 226.591 6.50584 228.679C5.90909 230.906 6.95672 232.728 9.23425 233.289C11.4531 233.883 12.8644 232.869 13.5606 230.271L13.5144 230.258Z" fill="#3F75B7"/>
<path d="M8.05611 268.381C8.42908 266.989 8.80205 265.597 9.17502 264.205C9.42367 263.277 10.0973 262.612 10.9205 262.683C11.6387 262.776 11.9821 263.714 11.8632 264.527C11.4 267.735 10.487 270.772 9.42292 273.819C9.17777 274.549 8.41524 274.991 7.54936 274.71C6.54481 274.391 6.76858 273.556 6.92127 272.801C7.31911 271.316 7.70451 269.878 8.10234 268.393L8.05611 268.381Z" fill="#3F75B7"/>
<path d="M17.8648 231.772C18.2626 230.287 18.6605 228.803 19.0459 227.364C19.2697 226.529 19.8811 226.096 20.8057 226.344C21.6377 226.567 21.8335 227.315 21.6719 227.919C20.9935 230.82 20.2814 233.663 19.4181 236.515C19.1819 237.396 18.3144 237.86 17.3561 237.554C16.3391 237.281 16.5291 236.387 16.7281 235.645C17.0762 234.346 17.4367 233 17.7848 231.701L17.8648 231.772Z" fill="#3F75B7"/>
<path d="M28.9782 301.238C27.7663 296.885 29.0383 293.248 30.7974 289.641C31.135 288.936 31.6629 288.63 32.4363 288.887C33.1635 289.131 33.233 289.797 33.13 290.366C32.3328 294.081 31.788 297.963 28.9782 301.238Z" fill="#3F75B7"/>
<path d="M41.9343 258.063C41.5862 259.362 41.2256 260.708 40.8775 262.007C40.5667 263.167 39.7276 263.34 38.6982 263.114C37.2866 262.835 38.1983 261.836 38.3226 261.372C38.9513 258.656 39.6385 255.906 40.4983 253.252C40.6351 252.742 39.8489 251.238 41.5717 251.65C42.7736 251.972 43.3302 252.669 43.007 253.875C42.634 255.267 42.261 256.659 41.8881 258.051L41.9343 258.063Z" fill="#3F75B7"/>
<path d="M23.9809 247.037C24.5627 248.933 24.2325 250.535 23.9147 252.091C23.5968 253.647 23.0817 255.2 22.6714 256.731C22.5098 257.334 22.6683 258.222 21.7154 258.265C20.5313 258.246 20.7711 257.167 20.7816 256.573C20.7487 253.182 21.5478 250.015 24.0147 247.095L23.9809 247.037Z" fill="#3F75B7"/>
<path d="M19.2061 252.47C18.5806 253.695 18.0014 254.932 17.3083 256.04C17.1164 256.386 16.8713 257.116 16.2152 256.791C15.7778 256.574 15.5323 256.011 15.7277 255.467C16.6515 253.128 17.0206 250.641 17.6671 248.229C17.8287 247.626 18.1932 247.375 18.7514 247.326C19.5532 247.292 19.3542 248.034 19.3472 248.43C19.3814 249.782 19.2768 251.097 19.2061 252.47Z" fill="#3F75B7"/>
<path d="M11.9604 276.737C11.3778 272.254 12.1591 268.784 14.6489 265.224C15.4999 269.629 13.8865 272.877 11.9604 276.737Z" fill="#3F75B7"/>
<path d="M28.1546 229.059C29.793 232.929 28.239 238.729 25.3095 240.232C25.9681 236.479 26.9592 232.966 28.1546 229.059Z" fill="#3F75B7"/>
<path d="M-0.182596 233.301C-1.68163 232.054 -0.846383 230.786 -0.581801 229.614C-0.189391 227.779 0.387929 225.995 0.860359 224.232C1.03441 223.582 1.14436 222.617 1.90885 222.722C2.9169 222.843 2.71097 223.982 2.59558 224.597C2.0897 227.594 1.43274 230.601 -0.275034 233.277L-0.182596 233.301Z" fill="#3F75B7"/>
<path d="M30.6868 240.131C29.4112 236.755 31.5848 234.006 31.8809 231.052C31.959 230.575 32.3412 230.628 32.6648 230.715C33.2195 230.863 33.5983 231.114 33.5291 231.742C33.1868 234.684 32.9244 237.697 30.6406 240.118L30.6868 240.131Z" fill="#3F75B7"/>
<path d="M24.7777 227.607C25.2837 231.82 24.4508 234.929 22.1067 238.13C21.4674 234.229 22.4053 231.099 24.7777 227.607Z" fill="#3F75B7"/>
<path d="M23.0049 268.059C24.0121 271.511 22.7542 274.357 20.7586 277.552C19.6908 273.586 21.6083 270.867 23.0049 268.059Z" fill="#3F75B7"/>
<path d="M14.7806 245.317C16.0456 249.287 14.8091 252.237 12.289 255.541C12.0231 251.541 13.1085 248.599 14.7806 245.317Z" fill="#3F75B7"/>
<path d="M9.24521 283.17C10.3895 287.405 8.79551 290.211 6.94748 293.594C5.91703 289.489 7.8808 286.783 9.24521 283.17Z" fill="#3F75B7"/>
<path d="M5.08268 281.507C5.6703 285.047 5.22853 288.359 2.63737 291.743C2.31626 287.579 3.77501 284.539 5.08268 281.507Z" fill="#3F75B7"/>
<path d="M16.4918 275.912C16.1566 272.54 16.8261 269.487 18.9161 266.864C19.4023 270.227 18.7329 273.28 16.4918 275.912Z" fill="#3F75B7"/>
<path d="M10.8296 244.159C11.0529 247.948 10.3959 250.955 8.46592 253.72C7.25476 251.953 8.27579 247.403 10.8296 244.159Z" fill="#3F75B7"/>
<path d="M-1.87456 290.833C-2.24348 287.402 -1.085 284.928 -0.308769 282.401C-0.20931 282.03 0.130205 281.872 0.500017 281.971C1.28587 282.182 1.23809 282.915 1.14756 283.438C0.710848 285.807 0.38792 288.306 -1.86214 290.787L-1.87456 290.833Z" fill="#3F75B7"/>
<path d="M11.7465 294.731C10.2771 291.155 11.4336 288.133 13.9696 284.585C14.2569 288.69 12.5795 291.622 11.7465 294.731Z" fill="#3F75B7"/>
</g>
<path opacity="0.3" d="M354.592 270.063C356.762 271.338 359.28 271.865 361.4 273.252C365.316 275.758 367.009 279.056 366.186 283.744C365.402 288.435 364.807 293.185 364.139 297.888C363.019 305.908 370.759 310.285 377.068 307.988C380.872 306.572 384.164 304.44 387.395 302.146C392.722 298.381 398.912 298.418 402.967 304.184C404.092 305.783 405.259 307.347 406.136 309.078C407.699 312.129 407.221 314.935 405.063 317.415C402.954 319.784 400.742 322.024 398.56 324.346C396.467 326.56 394.744 328.967 393.634 331.866C392.524 334.765 393.439 337.281 394.574 339.937C397.206 345.911 402.551 346.215 407.824 346.081C411.77 345.97 415.635 345.499 419.619 345.783C422.673 346.013 425.358 349.138 425.621 351.94C425.838 354.816 426.413 357.611 426.75 360.461C427.331 365.133 425.994 367.579 421.499 368.886C418.285 369.853 414.991 370.459 411.711 371.302C408.953 372.002 406.348 373.108 404.171 375C399.778 378.78 399.435 385.667 403.202 389.643C406.304 392.888 410.012 395.139 414.002 396.909C415.756 397.672 417.618 398.525 419.159 399.462C420.408 400.213 421.798 402.269 421.657 404.445C421.469 407.085 420.753 409.554 419.767 411.996C419.194 413.425 418.996 415.008 418.304 416.463C416.321 420.682 413.026 421.288 408.843 419.889C407.108 419.324 405.377 418.719 403.576 418.42C400.052 417.831 396.426 417.466 392.901 417.267C390.229 417.115 387.62 418.651 385.72 420.884C382.541 424.591 382.68 428.633 384.557 432.81C386.12 436.252 388.689 438.974 390.711 442.11C394.453 447.883 393.689 451.99 388.239 456.211C386.93 457.214 385.687 458.34 384.378 459.342C381.595 461.446 379.126 461.589 376.197 459.73C373.341 457.917 371.111 455.307 368.61 453.061C365.713 450.502 362.892 447.95 358.878 447.193C353.367 446.208 347.215 450.437 346.112 457.13C345.293 462.169 345.997 467.167 346.427 472.176C346.774 476.082 345.175 478.423 341.294 479.049C338.046 479.582 334.855 480.317 331.646 480.854C328.321 481.379 326.312 480.434 325.066 477.336C323.754 474.115 322.686 470.801 321.459 467.511C319.955 463.488 318.285 459.566 315.211 456.441C312.348 453.533 309.221 453.257 306.005 455.788C301.358 459.386 297.931 464.007 295.484 469.352C293.93 472.793 292.025 476.237 287.717 476.077C282.205 475.874 277.136 473.994 273.7 469.426C271.67 466.758 272.495 463.595 273.563 460.731C275.594 455.266 275.843 449.7 274.422 444.082C273.112 438.906 269.504 436.823 264.281 438.017C259.296 439.157 254.562 440.909 250.455 444.171C249.694 444.759 248.826 445.258 247.965 445.68C244.685 447.304 241.607 447.307 238.633 444.74C236.301 442.745 234.306 440.511 232.824 437.82C230.614 433.844 231.007 430.716 234.324 427.57C237.98 424.146 240.696 420.001 243.628 416.034C247.37 410.976 246.053 405.487 241.024 402.047C238.546 400.351 235.098 400.16 231.838 400.418C227.364 400.75 222.874 400.845 218.51 399.31C214.936 398.051 213.732 394.919 212.725 391.768C211.987 389.426 212.395 386.925 212.521 384.513C212.69 381.285 214.335 379.261 217.218 378.105C220.791 376.666 224.418 375.467 228.171 374.555C231.246 373.809 233.948 372.126 235.825 369.734C239.27 365.311 238.604 357.228 232.471 353.913C228.223 351.608 223.833 349.562 219.631 347.184C217.935 346.231 216.664 344.539 216.755 342.085C216.945 337.881 218.153 334.015 220.155 330.384C222.017 326.975 226.03 325.424 230.06 326.416C233.561 327.238 236.996 328.327 240.513 328.994C245.256 329.863 251.177 329.091 253.949 323.622C255.313 320.905 255.047 313.879 253.052 310.863C250.492 306.89 247.854 302.91 245.919 298.531C245.061 296.607 245.994 293.143 247.843 291.804C250.406 289.951 252.904 287.974 255.262 285.826C257.791 283.539 261.544 283.8 263.674 286.243C265.7 288.559 268.124 290.406 270.548 292.253C271.959 293.334 273.257 294.755 274.702 295.878C277.631 298.128 280.792 299.62 284.646 298.483C289.99 296.871 293.255 291.139 292.652 285.526C292.221 281.298 291.481 277.04 292.303 272.744C292.645 270.901 293.302 269.403 295.139 268.572C297.466 267.516 299.669 266.135 302.358 266.132C303.137 266.132 303.928 266.016 303.917 264.959L310.088 265.581C313.272 267.231 315.02 269.988 315.807 273.391C315.941 273.991 316.037 274.587 316.21 275.191C317.185 279.043 318.037 282.96 320.186 286.383C323.709 292.017 331.581 295.077 337.117 287.306C339.527 283.874 341.972 280.484 343.909 276.729C345.505 273.645 347.201 270.727 350.816 269.644L354.519 270.017L354.592 270.063ZM355.354 331.725C355.504 332.561 355.569 333.076 355.668 333.633C356.002 335.739 356.215 337.872 356.711 339.916C357.122 341.639 358.378 342.704 360.183 342.573C362.027 342.446 363.35 341.68 363.542 339.392C363.737 337.457 363.461 335.552 363.498 333.64C363.53 332.939 362.871 331.739 363.662 331.623C364.692 331.453 366.601 331.841 366.774 332.445C367.362 334.342 369.035 335.527 369.422 337.482C369.994 340.316 369.196 342.816 367.979 345.235C366.618 347.913 365.481 350.692 364.718 353.626C364.021 356.293 363.243 358.991 360.772 361.088C356.9 364.334 352.471 365.765 347.803 366.859C345.01 367.516 343.994 368.313 343.714 371.1C343.534 372.881 343.162 374.642 343.056 376.469C342.629 383.034 341.858 389.525 341.16 396.063C340.977 397.882 340.296 399.612 338.467 400.367C336.924 400.993 336.379 402.15 336.277 403.548C335.185 414.386 333.708 425.186 333.465 436.11C333.444 437.476 333.616 438.862 333.557 440.224C333.497 441.978 334.326 442.257 335.846 441.863C342.571 440.077 349.049 437.64 355.158 434.228C366.516 427.826 374.969 418.55 381.58 407.446C385.1 401.506 387.202 394.953 388.852 388.237C390.1 383.201 390.541 378.045 390.628 372.932C390.713 368.6 389.322 364.237 388.868 359.851C388.707 358.349 388.312 356.863 387.912 355.415C383.01 337.951 372.811 324.333 357.988 314.082C353.799 311.196 349.308 308.984 344.481 307.403C341.84 306.551 339.357 305.284 336.701 304.586C331.503 303.203 326.197 302.512 320.789 302.436C311.255 302.336 302.097 303.916 293.345 307.649C274.252 315.814 261.039 329.81 253.817 349.298C250.494 358.309 248.999 367.738 249.655 377.462C250.647 391.599 254.956 404.506 263.472 415.882C270.3 425.055 278.948 432.026 289.244 436.934C290.509 437.531 291.014 437.151 291.397 436.056C292.558 432.654 293.719 429.252 294.116 425.694C295.113 416.958 295.874 408.237 296.833 399.497C296.981 398.026 296.639 396.779 295.467 396.035C293.636 394.874 293.526 393.259 293.717 391.363C294.614 382.851 295.433 374.331 296.295 365.776C296.365 365.08 296.392 364.418 296.386 363.713C296.402 363.167 296.067 362.625 295.538 362.846C294.203 363.337 292.738 362.798 291.376 363.56C285.552 366.845 284.546 369.481 288.803 374.406C293.133 379.378 292.928 382.955 288.534 387.908C288.182 388.303 287.915 389.019 287.248 388.678C286.77 388.395 286.833 387.776 286.772 387.222C286.554 385.128 286.383 382.96 285.888 380.916C285.373 378.674 284.086 377.919 281.956 378.174C280.024 378.409 278.761 379.729 278.67 381.792C278.611 382.764 278.826 383.724 278.887 384.668C278.985 386.399 279.512 388.133 278.842 390.138C277.232 388.725 275.756 387.52 274.585 385.995C272.902 383.753 272.361 381.391 273.378 378.639C274.767 374.908 276.865 371.483 277.691 367.539C278.726 362.677 281.592 358.978 285.971 356.877C293.462 353.291 301.37 351.742 309.66 353.75C310.497 353.952 311.28 353.913 312.113 353.762C312.592 353.654 313.213 353.678 313.267 353.136C313.33 352.516 312.775 352.226 312.25 352.017C311.094 351.509 309.844 351.54 308.618 351.338C307.735 351.21 307.095 350.989 307.053 349.851C307.045 347.23 305.96 344.853 304.654 342.728C303.188 340.273 303.198 337.85 303.54 335.225C303.711 333.913 304.345 333.038 305.626 332.698C307.184 332.308 307.799 331.236 307.955 329.687C308.683 322.84 309.062 322.565 315.926 323.257C318.394 323.505 320.901 323.758 323.524 324.022C323.197 322.62 322.535 321.85 321.957 321.01C321.237 320.038 320.308 319.201 320.252 317.827C320.196 315.671 321.599 313.349 323.412 312.749C325.507 312.061 327.323 312.596 328.521 314.242C330.335 316.731 330.322 318.02 328.603 320.389C328.105 321.081 327.333 321.395 326.812 321.929C326.38 322.354 325.353 322.486 325.58 323.33C325.741 324.05 326.598 324.058 327.134 324.151C329.085 324.504 331.086 324.744 333.053 324.943C338.992 325.541 339.659 326.273 339.127 332.319C339.003 333.558 339.028 334.85 340.088 335.544C343.453 337.72 342.146 340.639 341.507 343.507C341.239 344.614 340.663 345.69 339.541 346.007C337.7 346.486 337.529 347.798 337.535 349.285C337.556 351.789 336.312 353.306 333.874 353.921C332.597 354.222 331.425 353.87 330.179 353.862C329.751 353.858 329.331 353.776 329.16 354.306C328.998 354.759 329.314 355.104 329.641 355.332C330.185 355.739 330.778 356.033 331.519 356.03C335.056 356.112 338.612 356.392 341.978 357.396C349.573 359.725 353.109 356.719 356.176 352.57C357.169 351.223 357.012 350.074 355.698 348.807C353.429 346.585 351.92 343.774 350.446 341.005C350.284 340.676 350.142 340.154 350.254 339.813C351.257 336.825 352.486 333.899 355.358 331.686L355.354 331.725ZM320.412 415.635C320.459 415.171 320.47 415.055 320.486 414.9C320.806 411.726 321.122 408.59 321.441 405.416C322.096 398.913 321.923 398.7 315.274 398.187C314.734 398.133 314.217 398.237 313.67 398.26C312.493 398.337 311.725 399.002 311.631 399.931C311.448 401.751 310.32 403.279 310.257 405.072C310.042 411.072 309.06 416.955 308.575 422.928C308.074 429.055 308.045 435.152 309.504 441.164C309.838 442.488 310.474 443.139 311.866 443.24C313.254 443.38 314.211 443.163 314.861 441.743C315.958 439.351 316.937 436.986 317.661 434.439C319.461 428.169 319.997 421.693 320.381 415.554L320.412 415.635ZM326.464 365.218C325.903 366.921 324.869 367.52 324.085 368.341C322.517 369.982 322.771 370.946 324.586 372.262C326.255 373.486 327.983 372.956 329.696 372.973C331.331 372.981 332.265 372.215 332.398 370.508C332.62 368.301 332.839 366.134 333.061 363.927C333.256 361.992 332.208 360.791 330.473 360.617C324.117 359.898 317.754 359.257 311.383 358.694C309.455 358.5 308.011 359.293 307.716 361.453C307.397 363.845 307.117 366.241 306.836 368.637C306.774 369.256 307.082 369.678 307.51 370.073C309.587 371.885 313.432 371.999 315.744 370.316C316.794 369.562 317.921 368.815 319.198 368.513C321.671 367.941 323.921 366.878 326.46 365.257L326.464 365.218ZM321.679 349.682C324.147 349.93 326.612 350.218 329.084 350.428C331.401 350.622 332.973 349.334 333.137 347.317C333.297 345.339 332.099 344.084 329.669 343.839C324.849 343.354 320.028 342.868 315.207 342.383C312.662 342.126 311.485 342.985 311.232 345.11C310.971 347.313 312.08 348.676 314.467 348.955C316.855 349.235 319.25 349.437 321.679 349.682ZM315.846 329.466C312.954 329.174 310.885 330.764 310.523 333.582C310.173 336.284 312.145 338.751 314.926 338.992C317.51 339.252 319.976 337.193 320.195 334.635C320.476 331.848 318.696 329.792 315.842 329.504L315.846 329.466ZM331.812 331.074C328.654 330.717 326.751 332.206 326.439 335.303C326.142 338.245 327.768 340.285 330.618 340.611C333.317 340.883 335.452 339.417 335.732 337.021C336.102 333.735 334.581 331.431 331.808 331.112L331.812 331.074ZM328.209 317.729C328.38 316.026 327.175 314.458 325.486 314.21C323.835 313.965 322.276 315.137 322.074 316.759C321.852 318.575 322.753 319.682 324.712 319.958C326.748 320.241 327.999 319.428 328.209 317.729Z" fill="#389D8B"/>
<path opacity="0.3" d="M275.689 89.7027C276.553 89.2696 276.592 88.4499 276.888 87.656C279.775 79.5803 283.922 75.7064 293.255 77.8168C296.97 78.6679 300.59 80.0296 304.421 80.1554C307.778 80.2767 311.275 80.7157 314.121 78.1846C319.005 73.8647 319.865 69.1829 317.346 62.4699C315.845 58.5039 313.244 55.1641 311.007 51.6442C309.138 48.7682 308.136 45.8496 308.965 42.335C309.467 40.3482 310.735 38.9152 312.023 37.7012C314.463 35.3459 316.988 32.9993 320.082 31.4468C322.811 30.0745 326.667 31.2431 329.413 33.9907C333.493 38.0863 338.004 41.7487 342.773 45.0034C346.409 47.4938 352.857 47.7964 356.736 43.1586C358.945 40.52 359.735 37.3917 359.829 33.8898C359.941 28.9159 358.891 23.9115 359.696 18.9206C360.371 14.7838 363.269 12.1712 367.268 11.0568C371.443 9.91666 375.518 10.197 379.683 10.4431C381.786 10.5683 383.008 11.7318 383.887 13.2942C385.449 16.2259 386.245 19.4707 387.003 22.6682C388.054 27.2391 389.409 31.7973 392.514 35.2746C397.985 41.4178 406.988 39.0734 410.758 32.9506C413.653 28.2137 415.977 23.159 418.872 18.4221C421.562 14.0112 423.449 13.2909 427.997 14.8761C431.207 16.0231 434.25 17.5434 437.456 18.7333C440.285 19.7986 442.37 21.8293 442.679 24.7648C442.899 26.8678 442.238 29.1421 441.808 31.2663C440.781 35.888 439.16 40.4065 439.112 45.1702C439.107 49.9381 440.826 53.8827 445.266 56.1073C449.664 58.3276 454.047 57.6854 458.172 55.3265C462.074 53.0318 465.789 50.4582 469.618 48.0262C473.585 45.5213 476.364 45.8012 479.435 49.1884C481.882 51.9058 484.179 54.8249 486.528 57.6625C489.184 60.8778 488.376 64.6112 484.974 67.5198C479.773 71.9812 476.047 77.6748 472.74 83.4974C469.222 89.689 474.004 97.1065 481.69 98.401C485.85 99.1234 490.062 98.8975 494.24 98.5813C496.811 98.3634 499.29 98.6132 501.749 99.0775C504.882 99.6966 506.68 102.002 507.686 104.878C509.28 109.633 509.523 114.513 508.474 119.349C507.692 122.825 504.928 124.541 501.682 125.037C496.332 125.842 491.728 128.24 487.039 130.629C485.263 131.533 483.603 132.58 482.161 134.039C479.177 137.076 478.635 140.316 481.184 143.737C485.027 148.893 489.683 153.263 495.769 155.871C498.09 156.841 500.214 158.052 501.721 160.241C504.142 163.65 502.834 167.203 502.274 170.615C501.835 173.258 500.502 175.768 499.178 178.192C497.049 182.183 494.667 182.68 490.349 181.378C484.018 179.483 477.473 178 470.802 178.629C464.045 179.249 459.758 185.796 461.423 192.423C462.534 196.827 465.335 200.317 467.769 204.03C468.708 205.425 469.557 206.854 470.402 208.327C472.784 212.555 471.869 216.494 469.013 219.978C467.78 221.501 465.956 222.878 464.113 223.602C461.456 224.679 459.371 227.373 455.989 226.642C453.326 226.071 451.086 225.151 449.237 222.928C447.388 220.704 445.119 218.785 442.508 217.265C440.303 216.002 438.625 213.796 436.228 212.731C429.287 209.604 422.831 212.812 420.412 219.678C419.631 221.853 418.897 223.99 419.066 226.175C419.303 228.973 418.974 231.801 420.079 234.556C421.704 238.578 419.118 244.95 415.114 246.541C411.247 248.059 407.201 249.212 402.993 248.962C398.098 248.685 395.641 246.487 394.359 241.633C392.929 236.113 391.228 230.697 388.176 225.838C386.089 222.549 383.886 219.553 379.336 219.702C378.25 219.766 377.317 220.019 376.32 220.482C370.194 223.419 367.066 229.173 363.892 234.532C362.02 237.682 359.516 239.814 356.991 242.16C355.801 243.254 354.116 243.258 352.683 243.331C347.009 243.496 342.046 241.739 338.417 237.038C337.576 235.957 337.354 234.721 337.36 233.377C337.397 230.867 338.071 228.464 338.869 226.116C340.491 221.164 340.663 216.023 341.092 210.908C341.17 210.135 340.435 209.281 340.085 208.465C336.985 201.087 331.167 199.677 325.978 201.452C321.328 203.021 316.93 205.526 312.95 208.593C309.483 211.279 303.188 211.598 299.591 209.155C298.621 208.494 297.998 207.391 297.229 206.446C295.38 204.223 293.809 201.81 292.696 199.14C291.301 195.835 291.937 192.952 294.505 190.609C299.265 186.234 302.747 180.819 306.345 175.546C310.555 169.337 306.338 161.89 298.942 160.711C292.52 159.718 286.029 159.844 279.642 158.941C275.597 158.36 273.013 156.149 271.944 152.183C270.777 147.904 270.739 143.565 271.564 139.226C272.11 136.377 274.259 134.773 276.953 134.177C281.812 133.106 286.338 131.048 291.031 129.483C292.015 129.148 292.977 128.595 293.893 128.08C300.79 124.353 301.442 114.449 295.2 109.528C291.919 106.943 288.252 105.187 284.542 103.426C281.162 101.828 277.846 100.021 276.374 96.1876C275.995 95.239 276.249 94.0074 275.24 93.2989L275.608 89.6512L275.689 89.7027ZM468.624 132.935C467.734 133.192 467.644 133.66 467.434 134.029C463.47 141.65 454.468 142.694 448.942 136.242C448.131 135.293 447.315 134.387 446.401 133.601C441.868 129.72 436.224 129.585 431.892 133.57C427.843 137.324 423.34 137.868 418.287 136.578C416.141 136.015 413.922 135.749 411.702 135.915C406.648 136.36 403.476 139.552 400.752 143.439C395.159 151.372 388.685 158.61 382.494 166.049C379.938 169.13 377.115 169.712 374.222 167.99C371.41 166.32 370.358 163.049 371.529 159.569C373.026 154.995 374.562 150.468 376.016 145.889C377.282 141.898 376.39 140.465 372.328 140.056C371.644 139.987 370.96 139.918 370.276 139.849C368.266 139.647 367.126 138.535 366.671 136.625C365.833 133.217 363.633 131.333 360.07 130.975C359.472 130.914 358.873 130.854 358.232 130.789C353.887 130.612 350.648 128.465 348.001 125.164C344.119 120.395 337.826 119.414 332.695 122.755C331.587 123.467 330.637 124.325 329.529 125.037C324.299 128.499 317.784 127.149 314.245 121.981C313.908 121.47 313.78 120.59 312.455 120.89C310.842 149.338 318.991 173.915 342.328 191.351C368.877 211.192 397.854 213.374 427.208 198.08C453.14 184.609 466.125 162.031 468.671 132.897L468.624 132.935ZM467.986 125.978C467.481 110.408 462.634 96.3515 453.523 83.9027C439.62 64.989 420.972 53.747 397.559 51.2153C377.096 48.9808 358.472 54.6478 342.428 67.2939C329.058 77.8251 319.811 91.5893 315.273 108.342C316.381 108.497 316.762 107.712 317.365 107.296C322.051 104.083 328.661 104.922 331.611 109.511C333.924 113.125 336.907 114.813 341.064 114.711C346.302 114.589 350.268 116.809 353.102 121.256C354.515 123.522 356.682 124.738 359.393 124.837C362.061 124.933 364.725 125.071 367.397 125.123C369.12 125.167 370.28 124.373 370.919 122.747C374.1 114.744 378.564 107.304 381.951 99.4089C383.987 94.6288 387.658 92.4843 392.444 91.7092C395.211 91.2509 397.952 91.4836 400.611 92.0983C405.553 93.2029 407.648 97.2721 405.915 102.039C405.555 103.044 405.113 103.996 404.668 104.992C403.141 108.566 401.654 112.188 400.008 115.663C399.022 117.731 399.915 118.298 401.668 118.475C403.25 118.634 404.884 118.712 406.457 118.957C411.933 119.899 414.227 121.994 413.26 127.315C413.242 127.487 413.229 127.616 413.212 127.787C412.885 129.315 413.565 129.86 415.023 129.964C417.079 130.128 419.127 130.377 421.171 130.67C423.98 131.083 426.221 130.268 428.161 128.166C431.067 125.034 434.691 123.795 438.945 124.44C440.009 124.591 441.082 124.656 442.143 124.849C445.447 125.486 448.305 124.56 450.296 121.942C453.974 117.154 462.777 118.518 465.646 122.622C466.398 123.738 467.196 124.815 467.994 125.893L467.986 125.978ZM378.264 159.164C379.466 158.808 379.971 158.079 380.507 157.482C389.073 148.331 396.883 138.541 404.971 128.995C405.313 128.596 405.579 128.102 405.84 127.652C406.723 126.18 406.407 125.455 404.607 125.317C400.879 125.028 397.159 124.653 393.439 124.279C390.489 123.981 389.733 122.908 391.087 120.183C393.676 115.069 395.892 109.787 397.98 104.492C398.619 102.865 401.063 101.334 399.264 99.4622C397.936 98.0712 395.717 97.8044 393.759 97.5205C391.801 97.2365 390.137 97.8926 389.13 99.7419C383.384 110.477 378.206 121.574 372.871 132.524C372.322 133.683 372.621 134.146 373.908 134.232C376.649 134.465 379.381 134.784 382.117 135.059C384.896 135.339 385.528 136.357 384.653 139.043C382.563 145.638 380.431 152.23 378.264 159.164ZM457.299 134.309C459.865 134.567 461.936 132.869 462.238 130.298C462.493 127.766 460.448 125.349 457.831 125.172C455.257 125 453.361 126.673 453.174 129.385C452.974 132.226 454.516 134.072 457.299 134.309ZM327.72 116.835C328.014 113.917 326.532 111.904 323.92 111.684C321.222 111.456 319.339 113 319.071 115.661C318.777 118.579 320.229 120.459 322.961 120.778C325.655 121.049 327.439 119.625 327.72 116.835Z" fill="#3F75B7"/>
</svg>
