<svg width="110" height="90" viewBox="0 0 110 90" fill="none" xmlns="http://www.w3.org/2000/svg">
<path opacity="0.3" d="M-124.311 79.7027C-123.447 79.2696 -123.408 78.4499 -123.112 77.656C-120.225 69.5803 -116.078 65.7064 -106.745 67.8168C-103.03 68.6679 -99.4099 70.0296 -95.5787 70.1554C-92.2222 70.2767 -88.7248 70.7157 -85.8785 68.1846C-80.9949 63.8647 -80.1346 59.1829 -82.6545 52.4699C-84.1553 48.5039 -86.7558 45.1641 -88.9926 41.6442C-90.8624 38.7682 -91.8641 35.8496 -91.035 32.335C-90.5326 30.3482 -89.2653 28.9152 -87.9769 27.7012C-85.537 25.3459 -83.0116 22.9993 -79.9184 21.4468C-77.1888 20.0745 -73.333 21.2431 -70.5865 23.9907C-66.5073 28.0863 -61.9958 31.7487 -57.2273 35.0034C-53.5911 37.4938 -47.1431 37.7964 -43.264 33.1586C-41.0547 30.52 -40.2645 27.3917 -40.1709 23.8898C-40.0586 18.9159 -41.1094 13.9115 -40.3044 8.92063C-39.6285 4.78375 -36.7308 2.17118 -32.7315 1.05677C-28.5569 -0.0833405 -24.4821 0.197039 -20.3175 0.443119C-18.2138 0.568313 -16.9921 1.73176 -16.113 3.29422C-14.5511 6.22593 -13.755 9.47067 -12.9973 12.6682C-11.9461 17.2391 -10.5913 21.7973 -7.48636 25.2746C-2.01541 31.4178 6.9882 29.0734 10.7578 22.9506C13.6535 18.2137 15.9766 13.159 18.8723 8.42207C21.5625 4.01124 23.449 3.29091 27.997 4.8761C31.207 6.02309 34.2499 7.54338 37.4557 8.73328C40.2852 9.79859 42.3698 11.8293 42.6787 14.7648C42.8988 16.8678 42.2378 19.1421 41.8079 21.2663C40.7809 25.888 39.1597 30.4065 39.1117 35.1702C39.1066 39.9381 40.8256 43.8827 45.2659 46.1073C49.6636 48.3276 54.0472 47.6854 58.1719 45.3265C62.0741 43.0318 65.7885 40.4582 69.6182 38.0262C73.5848 35.5213 76.3639 35.8012 79.4347 39.1884C81.882 41.9058 84.1793 44.8249 86.5281 47.6625C89.1843 50.8778 88.3763 54.6112 84.9737 57.5198C79.7735 61.9812 76.0472 67.6748 72.7397 73.4974C69.2224 79.689 74.0035 87.1065 81.6905 88.401C85.8503 89.1234 90.0624 88.8975 94.2404 88.5813C96.8106 88.3634 99.2904 88.6132 101.749 89.0775C104.882 89.6966 106.68 92.0018 107.686 94.8775C109.28 99.6332 109.523 104.513 108.474 109.349C107.692 112.825 104.928 114.541 101.682 115.037C96.3318 115.842 91.7282 118.24 87.039 120.629C85.2635 121.533 83.6033 122.58 82.1606 124.039C79.1769 127.076 78.6347 130.316 81.1837 133.737C85.0266 138.893 89.6827 143.263 95.769 145.871C98.0898 146.841 100.214 148.052 101.721 150.241C104.142 153.65 102.834 157.203 102.274 160.615C101.835 163.258 100.502 165.768 99.1785 168.192C97.0489 172.183 94.6666 172.68 90.3492 171.378C84.0185 169.483 77.4735 168 70.8022 168.629C64.0453 169.249 59.7579 175.796 61.4227 182.423C62.534 186.827 65.3352 190.317 67.7686 194.03C68.7078 195.425 69.5572 196.854 70.4022 198.327C72.7837 202.555 71.8686 206.494 69.0127 209.978C67.7795 211.501 65.9565 212.878 64.1127 213.602C61.4561 214.679 59.3708 217.373 55.9892 216.642C53.3258 216.071 51.0862 215.151 49.2371 212.928C47.388 210.704 45.1195 208.785 42.5084 207.265C40.3034 206.002 38.6253 203.796 36.2276 202.731C29.2867 199.604 22.8307 202.812 20.4115 209.678C19.6309 211.853 18.8974 213.99 19.0661 216.175C19.3025 218.973 18.9745 221.801 20.079 224.556C21.7038 228.578 19.1184 234.95 15.1143 236.541C11.2471 238.059 7.20075 239.212 2.99339 238.962C-1.90238 238.685 -4.35871 236.487 -5.64054 231.633C-7.0713 226.113 -8.77158 220.697 -11.8237 215.838C-13.9111 212.549 -16.1143 209.553 -20.6641 209.702C-21.7503 209.766 -22.6828 210.019 -23.6796 210.482C-29.8061 213.419 -32.9338 219.173 -36.1082 224.532C-37.9802 227.682 -40.484 229.814 -43.0094 232.16C-44.1994 233.254 -45.8841 233.258 -47.3167 233.331C-52.9912 233.496 -57.9537 231.739 -61.5833 227.038C-62.4245 225.957 -62.6455 224.721 -62.6398 223.377C-62.6028 220.867 -61.9289 218.464 -61.131 216.116C-59.5093 211.164 -59.337 206.023 -58.9081 200.908C-58.8303 200.135 -59.5648 199.281 -59.9146 198.465C-63.0153 191.087 -68.8334 189.677 -74.0222 191.452C-78.6719 193.021 -83.0704 195.526 -87.0505 198.593C-90.517 201.279 -96.8117 201.598 -100.409 199.155C-101.379 198.494 -102.002 197.391 -102.771 196.446C-104.62 194.223 -106.191 191.81 -107.304 189.14C-108.699 185.835 -108.063 182.952 -105.495 180.609C-100.735 176.234 -97.2529 170.819 -93.6553 165.546C-89.4452 159.337 -93.6619 151.89 -101.058 150.711C-107.48 149.718 -113.971 149.844 -120.358 148.941C-124.403 148.36 -126.987 146.149 -128.056 142.183C-129.223 137.904 -129.261 133.565 -128.436 129.226C-127.89 126.377 -125.741 124.773 -123.047 124.177C-118.188 123.106 -113.662 121.048 -108.969 119.483C-107.985 119.148 -107.023 118.595 -106.107 118.08C-99.21 114.353 -98.5578 104.449 -104.8 99.5282C-108.081 96.9435 -111.748 95.1869 -115.458 93.4261C-118.838 91.8284 -122.154 90.0205 -123.626 86.1876C-124.005 85.239 -123.751 84.0074 -124.76 83.2989L-124.392 79.6512L-124.311 79.7027ZM68.6239 122.935C67.7342 123.192 67.6439 123.66 67.434 124.029C63.4704 131.65 54.4682 132.694 48.942 126.242C48.1305 125.293 47.3148 124.387 46.4006 123.601C41.8679 119.72 36.2237 119.585 31.892 123.57C27.8428 127.324 23.3395 127.868 18.2867 126.578C16.1407 126.015 13.9217 125.749 11.7023 125.915C6.64752 126.36 3.4755 129.552 0.751721 133.439C-4.84139 141.372 -11.3146 148.61 -17.5058 156.049C-20.062 159.13 -22.8848 159.712 -25.7778 157.99C-28.5896 156.32 -29.6423 153.049 -28.4711 149.569C-26.9738 144.995 -25.4381 140.468 -23.9836 135.889C-22.7178 131.898 -23.6099 130.465 -27.6717 130.056C-28.3558 129.987 -29.0399 129.918 -29.724 129.849C-31.7335 129.647 -32.874 128.535 -33.3295 126.625C-34.1667 123.217 -36.3669 121.333 -39.9298 120.975C-40.5284 120.914 -41.127 120.854 -41.7683 120.789C-46.1126 120.612 -49.3515 118.465 -51.9991 115.164C-55.8808 110.395 -62.1741 109.414 -67.3047 112.755C-68.413 113.467 -69.3632 114.325 -70.4714 115.037C-75.7005 118.499 -82.2157 117.149 -85.755 111.981C-86.0922 111.47 -86.2196 110.59 -87.5455 110.89C-89.1584 139.338 -81.0093 163.915 -57.6725 181.351C-31.1227 201.192 -2.14629 203.374 27.2082 188.08C53.1399 174.609 66.1251 152.031 68.671 122.897L68.6239 122.935ZM67.9858 115.978C67.481 100.408 62.6344 86.3515 53.5228 73.9027C39.6205 54.989 20.972 43.747 -2.44082 41.2153C-22.9035 38.9808 -41.5276 44.6478 -57.5722 57.2939C-70.9419 67.8251 -80.1888 81.5893 -84.7268 98.3421C-83.6194 98.497 -83.238 97.7118 -82.6346 97.2957C-77.9489 94.083 -71.3391 94.9221 -68.3893 99.5109C-66.0756 103.125 -63.0927 104.813 -58.9363 104.711C-53.698 104.589 -49.7323 106.809 -46.8978 111.256C-45.4849 113.522 -43.3183 114.738 -40.6074 114.837C-37.9392 114.933 -35.2754 115.071 -32.6029 115.123C-30.8797 115.167 -29.72 114.373 -29.0812 112.747C-25.8997 104.744 -21.436 97.3043 -18.0493 89.4089C-16.013 84.6288 -12.3418 82.4843 -7.55611 81.7092C-4.78902 81.2509 -2.04833 81.4836 0.610704 82.0983C5.55261 83.2029 7.64774 87.2721 5.91505 92.0395C5.55476 93.0436 5.1133 93.9962 4.6675 94.9917C3.14137 98.5661 1.65365 102.188 0.00788423 105.663C-0.977849 107.731 -0.0847683 108.298 1.66821 108.475C3.25017 108.634 4.88353 108.712 6.45686 108.957C11.9334 109.899 14.2274 111.994 13.2595 117.315C13.2422 117.487 13.2293 117.616 13.212 117.787C12.8853 119.315 13.5647 119.86 15.0227 119.964C17.0793 120.128 19.1272 120.377 21.1708 120.67C23.9798 121.083 26.2213 120.268 28.1606 118.166C31.0674 115.034 34.6906 113.795 38.9446 114.44C40.0091 114.591 41.0823 114.656 42.1426 114.849C45.4473 115.486 48.3047 114.56 50.2959 111.942C53.9742 107.154 62.7771 108.518 65.6461 112.622C66.3975 113.738 67.1959 114.815 67.9944 115.893L67.9858 115.978ZM-21.7359 149.164C-20.534 148.808 -20.0286 148.079 -19.4935 147.482C-10.9272 138.331 -3.11705 128.541 4.97075 118.995C5.31326 118.596 5.5789 118.102 5.84023 117.652C6.72269 116.18 6.40705 115.455 4.60699 115.317C0.878599 115.028 -2.84116 114.653 -6.56091 114.279C-9.51105 113.981 -10.2667 112.908 -8.91257 110.183C-6.32429 105.069 -4.10785 99.7866 -2.01967 94.4915C-1.38078 92.8652 1.0625 91.334 -0.735681 89.4622C-2.06402 88.0712 -4.28299 87.8044 -6.24112 87.5205C-8.19924 87.2365 -9.86333 87.8926 -10.8702 89.7419C-16.616 100.477 -21.7935 111.574 -27.1291 122.524C-27.6776 123.683 -27.3788 124.146 -26.0918 124.232C-23.3511 124.465 -20.6191 124.784 -17.8827 125.059C-15.1036 125.339 -14.4719 126.357 -15.3471 129.043C-17.4367 135.638 -19.569 142.23 -21.7359 149.164ZM57.2994 124.309C59.8648 124.567 61.9362 122.869 62.2383 120.298C62.4934 117.766 60.4478 115.349 57.831 115.172C55.257 115 53.3609 116.673 53.1741 119.385C52.9743 122.226 54.516 124.072 57.2994 124.309ZM-72.2799 106.835C-71.9859 103.917 -73.4675 101.904 -76.08 101.684C-78.7779 101.456 -80.661 103 -80.929 105.661C-81.223 108.579 -79.7711 110.459 -77.0391 110.778C-74.3455 111.049 -72.5608 109.625 -72.2799 106.835Z" fill="#3F75B7"/>
</svg>
