<svg width="93" height="114" viewBox="0 0 93 114" fill="none" xmlns="http://www.w3.org/2000/svg">
<path opacity="0.3" d="M4.68875 -45.2973C5.55298 -45.7304 5.59235 -46.5501 5.88826 -47.344C8.77479 -55.4197 12.9225 -59.2936 22.2548 -57.1832C25.9697 -56.3321 29.5901 -54.9704 33.4213 -54.8446C36.7778 -54.7233 40.2752 -54.2843 43.1215 -56.8154C48.0051 -61.1353 48.8654 -65.8171 46.3455 -72.5301C44.8447 -76.4961 42.2442 -79.8359 40.0074 -83.3558C38.1376 -86.2318 37.1359 -89.1504 37.965 -92.665C38.4674 -94.6518 39.7347 -96.0848 41.0231 -97.2988C43.463 -99.6541 45.9884 -102.001 49.0816 -103.553C51.8112 -104.926 55.667 -103.757 58.4135 -101.009C62.4927 -96.9137 67.0042 -93.2513 71.7727 -89.9966C75.4089 -87.5062 81.8569 -87.2036 85.736 -91.8414C87.9453 -94.48 88.7355 -97.6083 88.8291 -101.11C88.9414 -106.084 87.8906 -111.089 88.6956 -116.079C89.3715 -120.216 92.2692 -122.829 96.2685 -123.943C100.443 -125.083 104.518 -124.803 108.683 -124.557C110.786 -124.432 112.008 -123.268 112.887 -121.706C114.449 -118.774 115.245 -115.529 116.003 -112.332C117.054 -107.761 118.409 -103.203 121.514 -99.7254C126.985 -93.5822 135.988 -95.9266 139.758 -102.049C142.653 -106.786 144.977 -111.841 147.872 -116.578C150.562 -120.989 152.449 -121.709 156.997 -120.124C160.207 -118.977 163.25 -117.457 166.456 -116.267C169.285 -115.201 171.37 -113.171 171.679 -110.235C171.899 -108.132 171.238 -105.858 170.808 -103.734C169.781 -99.112 168.16 -94.5935 168.112 -89.8298C168.107 -85.0619 169.826 -81.1173 174.266 -78.8927C178.664 -76.6724 183.047 -77.3146 187.172 -79.6735C191.074 -81.9682 194.789 -84.5418 198.618 -86.9738C202.585 -89.4787 205.364 -89.1988 208.435 -85.8116C210.882 -83.0942 213.179 -80.1751 215.528 -77.3375C218.184 -74.1222 217.376 -70.3888 213.974 -67.4802C208.773 -63.0188 205.047 -57.3252 201.74 -51.5026C198.222 -45.311 203.004 -37.8935 210.69 -36.599C214.85 -35.8766 219.062 -36.1025 223.24 -36.4187C225.811 -36.6366 228.29 -36.3868 230.749 -35.9225C233.882 -35.3034 235.68 -32.9982 236.686 -30.1225C238.28 -25.3668 238.523 -20.4871 237.474 -15.6509C236.692 -12.1749 233.928 -10.4593 230.682 -9.96258C225.332 -9.15763 220.728 -6.76024 216.039 -4.37145C214.263 -3.46654 212.603 -2.41997 211.161 -0.961327C208.177 2.07609 207.635 5.31605 210.184 8.73735C214.027 13.8929 218.683 18.2634 224.769 20.8706C227.09 21.8413 229.214 23.0522 230.721 25.2415C233.142 28.6499 231.834 32.2029 231.274 35.6145C230.835 38.258 229.502 40.7681 228.178 43.1924C226.049 47.1828 223.667 47.6799 219.349 46.378C213.018 44.4832 206.473 43.0003 199.802 43.6288C193.045 44.2487 188.758 50.7962 190.423 57.423C191.534 61.8266 194.335 65.3167 196.769 69.0298C197.708 70.4249 198.557 71.8543 199.402 73.3266C201.784 77.5546 200.869 81.494 198.013 84.9778C196.78 86.5009 194.956 87.8778 193.113 88.6025C190.456 89.6788 188.371 92.3731 184.989 91.6424C182.326 91.0707 180.086 90.1515 178.237 87.9278C176.388 85.7041 174.119 83.7849 171.508 82.2648C169.303 81.0023 167.625 78.7958 165.228 77.7307C158.287 74.6039 151.831 77.8118 149.412 84.6775C148.631 86.8531 147.897 88.9901 148.066 91.1745C148.303 93.9727 147.974 96.8008 149.079 99.5564C150.704 103.578 148.118 109.95 144.114 111.541C140.247 113.059 136.201 114.212 131.993 113.962C127.098 113.685 124.641 111.487 123.359 106.633C121.929 101.113 120.228 95.6967 117.176 90.8376C115.089 87.5495 112.886 84.5532 108.336 84.7018C107.25 84.7658 106.317 85.0186 105.32 85.4818C99.1939 88.4194 96.0662 94.1733 92.8918 99.5324C91.0198 102.682 88.516 104.814 85.9906 107.16C84.8006 108.254 83.1159 108.258 81.6833 108.331C76.0088 108.496 71.0463 106.739 67.4167 102.038C66.5755 100.957 66.3545 99.7205 66.3602 98.3773C66.3972 95.8667 67.0711 93.4636 67.869 91.1164C69.4907 86.1645 69.663 81.0232 70.0919 75.9077C70.1697 75.1353 69.4352 74.281 69.0854 73.4655C65.9847 66.0871 60.1666 64.6774 54.9778 66.4523C50.3281 68.0214 45.9296 70.5262 41.9495 73.5933C38.483 76.2786 32.1883 76.5983 28.5906 74.1551C27.6206 73.4939 26.9975 72.3907 26.2289 71.4463C24.3797 69.2226 22.8088 66.8102 21.6956 64.1404C20.3009 60.8354 20.9369 57.9516 23.5051 55.6093C28.2648 51.2335 31.7471 45.8187 35.3447 40.5456C39.5548 34.3371 35.3381 26.8897 27.9418 25.7112C21.5203 24.7176 15.0291 24.8441 8.6417 23.9406C4.59719 23.3598 2.01258 21.1487 0.943597 17.1829C-0.223399 12.9038 -0.261454 8.56496 0.564251 4.22643C1.1104 1.37699 3.25871 -0.227324 5.95326 -0.82292C10.812 -1.89411 15.3383 -3.95249 20.0308 -5.51729C21.0147 -5.85169 21.9774 -6.40497 22.893 -6.91964C29.79 -10.6466 30.4422 -20.5514 24.2002 -25.4718C20.919 -28.0565 17.2521 -29.8131 13.5424 -31.5739C10.1618 -33.1716 6.84551 -34.9795 5.37443 -38.8124C4.99489 -39.761 5.24852 -40.9926 4.24014 -41.7011L4.60756 -45.3488L4.68875 -45.2973ZM197.624 -2.06473C196.734 -1.80754 196.644 -1.33978 196.434 -0.970771C192.47 6.64973 183.468 7.69372 177.942 1.2415C177.131 0.292772 176.315 -0.613037 175.401 -1.39872C170.868 -5.27992 165.224 -5.41495 160.892 -1.42956C156.843 2.32417 152.34 2.86764 147.287 1.57839C145.141 1.01544 142.922 0.748581 140.702 0.915175C135.648 1.35973 132.476 4.55157 129.752 8.43882C124.159 16.372 117.685 23.6097 111.494 31.0492C108.938 34.1297 106.115 34.7124 103.222 32.9904C100.41 31.32 99.3577 28.0494 100.529 24.5693C102.026 19.995 103.562 15.4679 105.016 10.8892C106.282 6.89848 105.39 5.46479 101.328 5.05566C100.644 4.98675 99.9601 4.91785 99.276 4.84894C97.2665 4.64653 96.126 3.5346 95.6705 1.62468C94.8333 -1.78315 92.6331 -3.66651 89.0702 -4.02539C88.4716 -4.08568 87.873 -4.14597 87.2317 -4.21057C82.8874 -4.38805 79.6485 -6.53497 77.0009 -9.83615C73.1192 -14.6055 66.8259 -15.5862 61.6953 -12.2448C60.587 -11.5328 59.6368 -10.6748 58.5286 -9.9628C53.2995 -6.5013 46.7843 -7.85114 43.245 -13.0195C42.9078 -13.5303 42.7804 -14.4101 41.4545 -14.1102C39.8416 14.3383 47.9907 38.9149 71.3275 56.3513C97.8773 76.1921 126.854 78.3738 156.208 63.0802C182.14 49.6094 195.125 27.0315 197.671 -2.10333L197.624 -2.06473ZM196.986 -9.02165C196.481 -24.5918 191.634 -38.6485 182.523 -51.0973C168.62 -70.011 149.972 -81.253 126.559 -83.7847C106.096 -86.0192 87.4724 -80.3522 71.4278 -67.7061C58.0581 -57.1749 48.8112 -43.4107 44.2732 -26.6579C45.3806 -26.503 45.762 -27.2882 46.3654 -27.7043C51.0511 -30.917 57.6609 -30.0779 60.6107 -25.4891C62.9244 -21.8747 65.9073 -20.1871 70.0637 -20.2886C75.302 -20.4113 79.2677 -18.1911 82.1022 -13.744C83.5151 -11.4776 85.6817 -10.2623 88.3926 -10.1626C91.0608 -10.0673 93.7246 -9.92901 96.3971 -9.87658C98.1203 -9.83306 99.28 -10.6266 99.9188 -12.2529C103.1 -20.2556 107.564 -27.6957 110.951 -35.5911C112.987 -40.3712 116.658 -42.5157 121.444 -43.2908C124.211 -43.7491 126.952 -43.5164 129.611 -42.9017C134.553 -41.7971 136.648 -37.7279 134.915 -32.9605C134.555 -31.9564 134.113 -31.0038 133.668 -30.0083C132.141 -26.4339 130.654 -22.8124 129.008 -19.3367C128.022 -17.2685 128.915 -16.7017 130.668 -16.5251C132.25 -16.3658 133.884 -16.288 135.457 -16.0428C140.933 -15.101 143.227 -13.0059 142.26 -7.68466C142.242 -7.513 142.229 -7.38426 142.212 -7.2126C141.885 -5.6849 142.565 -5.13963 144.023 -5.03612C146.079 -4.87232 148.127 -4.62269 150.171 -4.33014C152.98 -3.91716 155.221 -4.73179 157.161 -6.834C160.067 -9.96586 163.691 -11.2049 167.945 -10.5596C169.009 -10.409 170.082 -10.3443 171.143 -10.1508C174.447 -9.51449 177.305 -10.4405 179.296 -13.0577C182.974 -17.8458 191.777 -16.4823 194.646 -12.3785C195.398 -11.2624 196.196 -10.185 196.994 -9.10748L196.986 -9.02165ZM107.264 24.164C108.466 23.8082 108.971 23.0788 109.507 22.4824C118.073 13.3314 125.883 3.54073 133.971 -6.00526C134.313 -6.40426 134.579 -6.89769 134.84 -7.34822C135.723 -8.81993 135.407 -9.54533 133.607 -9.6833C129.879 -9.97214 126.159 -10.3468 122.439 -10.7215C119.489 -11.0186 118.733 -12.0918 120.087 -14.8165C122.676 -19.9312 124.892 -25.2134 126.98 -30.5085C127.619 -32.1348 130.063 -33.666 128.264 -35.5378C126.936 -36.9288 124.717 -37.1956 122.759 -37.4795C120.801 -37.7635 119.137 -37.1074 118.13 -35.2581C112.384 -24.5225 107.206 -13.4262 101.871 -2.47592C101.322 -1.31738 101.621 -0.853787 102.908 -0.767501C105.649 -0.534799 108.381 -0.216259 111.117 0.0593626C113.896 0.33929 114.528 1.35662 113.653 4.04286C111.563 10.6383 109.431 17.2295 107.264 24.164ZM186.299 -0.69108C188.865 -0.432685 190.936 -2.13144 191.238 -4.70201C191.493 -7.23397 189.448 -9.65086 186.831 -9.82774C184.257 -10.0003 182.361 -8.32724 182.174 -5.615C181.974 -2.77403 183.516 -0.928096 186.299 -0.69108ZM56.7201 -18.1647C57.0141 -21.0829 55.5325 -23.0962 52.92 -23.316C50.2221 -23.5444 48.339 -22 48.071 -19.3393C47.777 -16.4211 49.2289 -14.5409 51.9609 -14.2224C54.6545 -13.951 56.4392 -15.3752 56.7201 -18.1647Z" fill="#3F75B7"/>
</svg>
